<svg width="100" height="92" viewBox="0 0 100 92" fill="none" xmlns="http://www.w3.org/2000/svg">
<path d="M44.0625 84.4062C43.7223 80.5486 42.794 76.7807 42.5921 72.8942C42.1799 65.0344 42.1481 57.1978 43.1457 49.3814C43.5032 46.5735 44.0337 43.7945 45.3369 41.244C45.556 40.8131 45.7751 40.443 46 40.1249C41.0843 40.3562 36.6933 39.827 33 39C33.2422 39.5147 33.4613 40.0381 33.6516 40.5789C35.6294 46.2612 36.4597 52.169 37.045 58.126C37.7946 65.7487 38.132 73.3511 36.6731 80.9506C36.1974 83.4317 36.0042 85.9909 36.7336 88.4894C37.2295 90.1926 38.2559 90.9792 39.8474 90.9994C41.6753 91.0254 43.0275 90.1782 43.5551 88.579C43.9991 87.2315 44.1952 85.8492 44.0683 84.4091L44.0625 84.4062Z" fill="#FAED6D"/>
<path d="M55.8191 41.2024C58.2754 42.3998 60.5857 42.2131 62.8302 40.6185C63.7435 39.9694 64.6968 39.3589 65.7818 39.0476C67.199 38.6416 68.0321 39.0565 68.6333 40.4466C69.4091 42.2427 69.8299 44.0833 69.4406 46.0721C69.1829 47.3791 69.0054 48.7069 68.848 50.0318C68.6648 51.5878 68.6247 53.1557 69.1658 54.6525C69.5809 55.7995 70.1849 56.8102 71.5162 56.9732C73.2081 57.1807 74.2874 56.1759 74.6081 54.1931C74.9029 52.3703 74.7942 50.5564 74.4764 48.7692C73.9754 45.9357 73.8408 43.123 74.1729 40.248C74.5222 37.2397 75.2608 34.4447 77.0272 31.9729C78.0693 30.5117 78.9911 28.9586 79.9788 27.4529C80.7203 26.3237 81.3931 25.1707 82 24C71.2528 33.5645 60.9636 37.9036 52 39.427C53.2883 39.9813 54.5565 40.5829 55.8162 41.1994L55.8191 41.2024Z" fill="#FAED6D"/>
</svg>
