<svg width="100" height="92" viewBox="0 0 100 92" fill="none" xmlns="http://www.w3.org/2000/svg">
<path d="M98.1939 29.8352C99.4733 26.2961 102.132 18.9297 96.8233 11.7787C93.7498 7.6429 89.2027 5.54445 83.3086 5.54445C82.2145 5.54445 81.1969 5.61139 80.3822 5.66669L80.0263 5.68997C73.8057 2.05479 65.3439 0 56.4351 0C44.3233 0 32.6498 3.641 23.5616 10.2507C5.94687 23.0684 -1.11784 46.1688 2.05569 61.1548C1.97628 61.3818 1.8851 61.6292 1.80863 61.8417C0.529221 65.3808 -2.13254 72.7472 3.18216 79.9012C6.25569 84.034 10.7998 86.1296 16.6939 86.1296C17.7851 86.1296 18.7998 86.0655 19.6175 86.0132L19.9763 85.9899C19.9763 85.9899 32.7057 94.4652 51.7027 91.2869C51.7057 91.2869 51.7086 91.2869 51.7116 91.2898C56.1733 90.5651 60.9586 89.1885 65.9586 86.895C65.9939 86.8776 66.0292 86.863 66.0645 86.8485C67.5057 86.1965 68.7527 85.5649 69.8233 84.9596C73.9498 82.7127 78.2057 79.8255 82.5322 76.1437C95.6322 62.8633 100.709 43.5901 97.9469 30.5221C98.0263 30.2922 98.1145 30.0477 98.1939 29.8352Z" fill="#FAED6D"/>
</svg>
